# Blender 3.3.0
# www.blender.org
o basic_diagonal_left
v 0.421000 1.531000 0.470000
v -0.579000 0.531000 0.470000
v -0.516000 0.469000 0.470000
v 0.484000 1.469000 0.470000
v 0.421000 1.531000 0.312000
v 0.484000 1.469000 0.312000
v -0.516000 0.469000 0.312000
v -0.579000 0.531000 0.312000
v 0.203000 0.250000 0.437000
v 0.265000 0.250000 0.437000
v 0.265000 1.250000 0.437000
v 0.203000 1.188000 0.437000
v 0.203000 0.250000 0.375000
v 0.203000 1.188000 0.375000
v 0.265000 1.250000 0.375000
v 0.265000 0.250000 0.375000
v 0.265000 0.250000 0.500000
v 0.203000 0.250000 0.500000
v -0.297000 -0.187000 0.437000
v -0.235000 -0.187000 0.437000
v -0.235000 0.813000 0.437000
v -0.297000 0.750000 0.437000
v -0.297000 -0.187000 0.375000
v -0.297000 0.750000 0.375000
v -0.235000 0.813000 0.375000
v -0.235000 -0.187000 0.375000
v -0.235000 -0.187000 0.500000
v -0.297000 -0.187000 0.500000
v -0.297000 -0.125000 0.500000
v -0.297000 -0.125000 0.437000
v -0.235000 -0.125000 0.437000
v -0.235000 -0.125000 0.500000
v 0.203000 0.313000 0.437000
v 0.203000 0.313000 0.500000
v 0.265000 0.313000 0.500000
v 0.265000 0.313000 0.437000
vn -0.7071 -0.0000 0.7071
vn 0.7071 -0.0000 0.7071
vn 0.8944 -0.0000 0.4472
vn -0.5547 -0.0000 0.8321
vn -0.5774 -0.5774 -0.5774
vn -0.5547 -0.0000 -0.8321
vn 0.8944 -0.0000 -0.4472
vn 0.5774 -0.5774 -0.5774
vn 0.5774 -0.5774 0.5774
vn -0.5774 -0.5774 0.5774
vn -0.5549 -0.0000 0.8319
vn -0.5548 -0.0000 -0.8320
vn -0.5774 0.5774 0.5774
vn -0.7071 0.7071 -0.0000
vn -1.0000 -0.0000 -0.0000
vn 1.0000 -0.0000 -0.0000
vn 0.7071 0.7071 -0.0000
vn 0.5774 0.5774 0.5774
vn -0.0000 0.8168 0.5769
vn -0.8165 -0.0000 0.5773
vn -0.0000 -0.8165 0.5774
vn 0.8168 -0.0000 0.5769
vn -0.0000 0.8168 -0.5769
vn 0.8168 -0.0000 -0.5769
vn -0.0000 -0.8165 -0.5774
vn -0.8165 -0.0000 -0.5773
vt 0.875000 0.938000
vt -0.187000 0.625000
vt 0.625000 0.313000
vt -0.125000 0.938000
vt -0.125000 0.625000
vt -0.375000 0.313000
vt -0.125000 0.875000
vt 0.063000 0.625000
vt 0.375000 0.250000
vt 0.875000 0.875000
vt -0.375000 0.625000
vt 1.375000 0.250000
vt 0.875000 0.938000
vt -0.187000 0.563000
vt 0.625000 0.500000
vt 0.875000 1.000000
vt -0.375000 0.563000
vt 1.375000 0.063000
vt -0.125000 1.000000
vt 0.063000 0.563000
vt 0.375000 0.063000
vt -0.125000 0.938000
vt -0.125000 0.563000
vt -0.375000 0.500000
vt -0.312000 0.500000
vt -0.312000 0.375000
vt -0.312000 0.438000
vt -0.062000 0.875000
vt -0.312000 0.875000
vt 0.625000 0.438000
vt 0.875000 0.875000
vt 0.563000 0.500000
vt 0.563000 0.375000
vt 0.125000 0.688000
vt 1.000000 0.125000
vt -0.312000 0.438000
vt 1.000000 0.688000
vt 0.563000 0.438000
vt 1.063000 0.750000
vt 0.875000 0.813000
vt 0.125000 0.750000
vt 1.000000 0.063000
vt -0.062000 0.813000
vt 1.125000 0.063000
vt -0.312000 0.938000
vt -0.312000 0.875000
vt 1.125000 0.125000
vt -0.312000 0.313000
vt -0.312000 0.938000
vt 0.125000 0.625000
vt 0.438000 0.188000
vt 0.125000 0.563000
vt -0.062000 1.000000
vt -0.375000 0.813000
vt 1.063000 0.563000
vt 0.875000 1.000000
vt 1.000000 0.625000
vt 1.313000 0.188000
vt 0.125000 0.625000
vt 1.188000 0.125000
vt 0.438000 0.250000
vt 1.000000 0.625000
vt 1.313000 0.250000
vt 1.063000 0.688000
vt 0.875000 0.938000
vt 0.125000 0.688000
vt 1.188000 0.063000
vt -0.062000 0.938000
vt 1.313000 0.063000
vt -0.375000 0.875000
vt -0.375000 0.813000
vt 1.313000 0.125000
vt 0.438000 0.125000
vt -0.375000 0.875000
vt 0.500000 0.125000
vt 0.875000 0.125000
vt -0.312000 0.875000
vt 0.500000 0.188000
vt 0.938000 0.125000
vt -0.312000 0.813000
vt 0.938000 0.063000
vt -0.312000 0.875000
vt 0.875000 0.063000
vt -0.312000 0.813000
vt 0.813000 0.125000
vt -0.250000 0.375000
vt 0.750000 0.125000
vt -0.250000 0.313000
vt -0.250000 0.938000
vt 0.750000 0.063000
vt -0.250000 0.938000
vt -0.250000 0.875000
vt 0.813000 0.063000
vt -0.250000 0.875000
s 1
f 9/25/1 10/27/2 11/30/3 12/32/4
f 13/34/5 14/37/6 15/39/7 16/41/8
f 13/35/5 16/42/8 17/44/9 18/47/10
f 19/50/1 20/52/2 21/55/3 22/57/11
f 23/59/5 24/62/12 25/64/7 26/66/8
f 23/60/5 26/67/8 27/69/9 28/72/10
f 11/31/3 10/28/2 16/43/8 15/40/7
f 9/26/1 12/33/4 14/38/6 13/36/5
f 21/56/3 20/53/2 26/68/8 25/65/7
f 19/51/1 22/58/11 24/63/12 23/61/5
f 28/73/10 29/75/13 30/78/14 19/51/15
f 20/54/16 31/80/17 32/82/18 27/70/9
f 33/85/14 34/87/13 35/90/18 36/93/17
f 30/79/14 29/76/13 32/83/18 31/81/17
f 10/29/16 36/94/17 35/91/18 17/45/9
f 33/86/14 9/26/15 18/48/10 34/88/13
f 17/46/9 35/92/18 34/89/13 18/49/10
f 27/71/9 32/84/18 29/77/13 28/74/10
f 1/1/19 2/4/20 3/7/21 4/10/22
f 5/13/23 6/16/24 7/19/25 8/22/26
f 1/2/19 4/11/22 6/17/24 5/14/23
f 2/5/20 8/23/26 7/20/25 3/8/21
f 4/12/22 3/9/21 7/21/25 6/18/24
f 2/6/20 1/3/19 5/15/23 8/24/26
