# Blender 3.3.0
# www.blender.org
o basic_diagonal_left
v -0.467000 1.531000 0.470000
v 0.533000 0.531000 0.470000
v 0.470000 0.469000 0.470000
v -0.530000 1.469000 0.470000
v -0.467000 1.531000 0.312000
v -0.530000 1.469000 0.312000
v 0.470000 0.469000 0.312000
v 0.533000 0.531000 0.312000
v -0.249000 0.250000 0.437000
v -0.311000 0.250000 0.437000
v -0.311000 1.250000 0.437000
v -0.249000 1.188000 0.437000
v -0.249000 0.250000 0.375000
v -0.249000 1.188000 0.375000
v -0.311000 1.250000 0.375000
v -0.311000 0.250000 0.375000
v -0.311000 0.250000 0.500000
v -0.249000 0.250000 0.500000
v 0.251000 -0.187000 0.437000
v 0.189000 -0.187000 0.437000
v 0.189000 0.813000 0.437000
v 0.251000 0.750000 0.437000
v 0.251000 -0.187000 0.375000
v 0.251000 0.750000 0.375000
v 0.189000 0.813000 0.375000
v 0.189000 -0.187000 0.375000
v 0.189000 -0.187000 0.500000
v 0.251000 -0.187000 0.500000
v 0.251000 -0.125000 0.500000
v 0.251000 -0.125000 0.437000
v 0.189000 -0.125000 0.437000
v 0.189000 -0.125000 0.500000
v -0.249000 0.313000 0.437000
v -0.249000 0.313000 0.500000
v -0.311000 0.313000 0.500000
v -0.311000 0.313000 0.437000
vn -0.7071 -0.0000 -0.7071
vn 0.7071 -0.0000 -0.7071
vn 0.8944 -0.0000 -0.4472
vn -0.5547 -0.0000 -0.8321
vn -0.5774 0.5774 0.5774
vn -0.5547 -0.0000 0.8321
vn 0.8944 -0.0000 0.4472
vn 0.5774 0.5774 0.5774
vn 0.5774 0.5774 -0.5774
vn -0.5774 0.5774 -0.5774
vn 0.8974 -0.0000 -0.4413
vn -0.5526 -0.0000 -0.8335
vn -0.5526 -0.0000 0.8334
vn 0.8974 -0.0000 0.4413
vn 0.5773 0.5774 0.5774
vn -0.5774 -0.5774 -0.5774
vn -0.7071 -0.7071 -0.0000
vn -1.0000 -0.0000 -0.0000
vn 1.0000 -0.0000 -0.0000
vn 0.7071 -0.7071 -0.0000
vn 0.5774 -0.5774 -0.5774
vn -0.0047 -0.8159 -0.5782
vn -0.8169 0.0047 -0.5767
vn 0.0047 0.8161 -0.5780
vn 0.8168 -0.0047 -0.5770
vn -0.0047 -0.8159 0.5782
vn 0.8168 -0.0047 0.5770
vn 0.0047 0.8161 0.5780
vn -0.8169 0.0047 0.5767
vt 0.875000 0.938000
vt -0.187000 0.625000
vt 0.625000 0.313000
vt -0.125000 0.938000
vt -0.125000 0.625000
vt -0.375000 0.313000
vt -0.125000 0.875000
vt 0.063000 0.625000
vt 0.375000 0.250000
vt 0.875000 0.875000
vt -0.375000 0.625000
vt 1.375000 0.250000
vt 0.875000 0.938000
vt -0.187000 0.563000
vt 0.625000 0.500000
vt 0.875000 1.000000
vt -0.375000 0.563000
vt 1.375000 0.063000
vt -0.125000 1.000000
vt 0.063000 0.563000
vt 0.375000 0.063000
vt -0.125000 0.938000
vt -0.125000 0.563000
vt -0.375000 0.500000
vt -0.312000 0.500000
vt -0.312000 0.375000
vt -0.312000 0.438000
vt -0.062000 0.875000
vt -0.312000 0.875000
vt 0.625000 0.438000
vt 0.875000 0.875000
vt 0.563000 0.500000
vt 0.563000 0.375000
vt 0.125000 0.688000
vt 1.000000 0.125000
vt -0.312000 0.438000
vt 1.000000 0.688000
vt 0.563000 0.438000
vt 1.063000 0.750000
vt 0.875000 0.813000
vt 0.125000 0.750000
vt 1.000000 0.063000
vt -0.062000 0.813000
vt 1.125000 0.063000
vt -0.312000 0.938000
vt -0.312000 0.875000
vt 1.125000 0.125000
vt -0.312000 0.313000
vt -0.312000 0.938000
vt 0.125000 0.625000
vt 0.438000 0.188000
vt 0.125000 0.563000
vt -0.062000 1.000000
vt -0.375000 0.813000
vt 1.063000 0.563000
vt 0.875000 1.000000
vt 1.000000 0.625000
vt 1.313000 0.188000
vt 0.125000 0.625000
vt 1.188000 0.125000
vt 0.438000 0.250000
vt 1.000000 0.625000
vt 1.313000 0.250000
vt 1.063000 0.688000
vt 0.875000 0.938000
vt 0.125000 0.688000
vt 1.188000 0.063000
vt -0.062000 0.938000
vt 1.313000 0.063000
vt -0.375000 0.875000
vt -0.375000 0.813000
vt 1.313000 0.125000
vt 0.438000 0.125000
vt -0.375000 0.875000
vt 0.500000 0.125000
vt 0.875000 0.125000
vt -0.312000 0.875000
vt 0.500000 0.188000
vt 0.938000 0.125000
vt -0.312000 0.813000
vt 0.938000 0.063000
vt -0.312000 0.875000
vt 0.875000 0.063000
vt -0.312000 0.813000
vt 0.813000 0.125000
vt -0.250000 0.375000
vt 0.750000 0.125000
vt -0.250000 0.313000
vt -0.250000 0.938000
vt 0.750000 0.063000
vt -0.250000 0.938000
vt -0.250000 0.875000
vt 0.813000 0.063000
vt -0.250000 0.875000
s 1
f 9/25/1 10/27/2 11/30/3 12/32/4
f 13/34/5 14/37/6 15/39/7 16/41/8
f 13/35/5 16/42/8 17/44/9 18/47/10
f 19/50/1 20/52/2 21/55/11 22/57/12
f 23/59/5 24/62/13 25/64/14 26/66/15
f 23/60/5 26/67/15 27/69/9 28/72/10
f 11/31/3 10/28/2 16/43/8 15/40/7
f 9/26/1 12/33/4 14/38/6 13/36/5
f 21/56/11 20/53/2 26/68/15 25/65/14
f 19/51/1 22/58/12 24/63/13 23/61/5
f 28/73/10 29/75/16 30/78/17 19/51/18
f 20/54/19 31/80/20 32/82/21 27/70/9
f 33/85/17 34/87/16 35/90/21 36/93/20
f 30/79/17 29/76/16 32/83/21 31/81/20
f 10/29/19 36/94/20 35/91/21 17/45/9
f 33/86/17 9/26/18 18/48/10 34/88/16
f 17/46/9 35/92/21 34/89/16 18/49/10
f 27/71/9 32/84/21 29/77/16 28/74/10
f 1/1/22 2/4/23 3/7/24 4/10/25
f 5/13/26 6/16/27 7/19/28 8/22/29
f 1/2/22 4/11/25 6/17/27 5/14/26
f 2/5/23 8/23/29 7/20/28 3/8/24
f 4/12/25 3/9/24 7/21/28 6/18/27
f 2/6/23 1/3/22 5/15/26 8/24/29
