# Blender 3.3.0
# www.blender.org
o Cube
v 0.066933 -0.500319 0.497500
v 0.066933 0.440119 0.457500
v 0.066933 -0.500319 0.357500
v 0.066933 0.440119 0.357500
v -0.033067 -0.500319 0.497500
v -0.033067 0.440119 0.457500
v -0.033067 -0.500319 0.357500
v -0.033067 0.440119 0.357500
v 0.066933 -0.014881 0.457500
v 0.066933 -0.014881 0.357500
v -0.033067 -0.014881 0.357500
v -0.033067 -0.014881 0.457500
v 0.096933 -0.249383 0.327500
v -0.063067 -0.249383 0.327500
v -0.063067 -0.249383 0.487500
v 0.096933 -0.249383 0.487500
v 0.094433 0.190883 0.485000
v 0.094433 0.190883 0.330000
v -0.060567 0.190883 0.330000
v -0.060567 0.190883 0.485000
v 0.096933 -0.380313 0.327500
v -0.063067 -0.380313 0.327500
v -0.063067 -0.380313 0.497500
v 0.096933 -0.380313 0.497500
v 0.096933 -0.106569 0.487500
v 0.096933 -0.106569 0.327500
v -0.063067 -0.106569 0.327500
v -0.063067 -0.106569 0.487500
v 0.094433 0.047932 0.330000
v -0.060567 0.047932 0.330000
v -0.060567 0.047932 0.485000
v 0.094433 0.047932 0.485000
v 0.094433 0.310816 0.485000
v 0.094433 0.310816 0.330000
v -0.060567 0.310816 0.330000
v -0.060567 0.310816 0.485000
v 0.066933 -0.062819 0.457500
v 0.066933 -0.062819 0.357500
v -0.033067 -0.062819 0.357500
v -0.033067 -0.062819 0.457500
v 0.066933 0.002619 0.357500
v -0.033067 0.002619 0.357500
v -0.033067 0.002619 0.457500
v 0.066933 0.002619 0.457500
vn -0.9781 -0.2080 -0.0000
vn -0.0000 -0.2080 0.9781
vn 0.9781 -0.2080 -0.0000
vn -0.0000 -0.2080 -0.9781
vn -0.0000 1.0000 -0.0000
vn -0.0000 -1.0000 -0.0000
vn -0.0000 -0.0000 -1.0000
vn 1.0000 -0.0000 -0.0000
vn -0.0000 -0.0000 1.0000
vn -1.0000 -0.0000 -0.0000
vn -0.0000 -0.0762 -0.9971
vn 0.9701 0.2425 -0.0000
vn -0.0000 0.2425 0.9701
vn -0.9701 0.2425 -0.0000
vn -0.8549 0.5188 -0.0000
vn -0.0000 0.5188 0.8549
vn 0.8549 0.5188 -0.0000
vn -0.0000 0.5188 -0.8549
vn -0.8247 -0.5655 -0.0000
vn -0.0000 -0.5655 0.8247
vn 0.8247 -0.5655 -0.0000
vn -0.0000 -0.5655 -0.8247
vt 0.125000 0.750000
vt 0.375000 1.000000
vt 0.375000 0.000000
vt 0.625000 0.000000
vt 0.625000 1.000000
vt 0.875000 0.750000
vt 0.125000 0.500000
vt 0.375000 0.250000
vt 0.625000 0.250000
vt 0.875000 0.500000
vt 0.375000 0.750000
vt 0.625000 0.750000
vt 0.375000 0.500000
vt 0.625000 0.500000
vt 0.500000 1.000000
vt 0.500000 0.000000
vt 0.500000 0.250000
vt 0.500000 0.500000
vt 0.500000 0.750000
vt 0.437500 0.250000
vt 0.437500 0.500000
vt 0.437500 0.750000
vt 0.437500 0.000000
vt 0.437500 1.000000
vt 0.562500 1.000000
vt 0.562500 0.000000
vt 0.562500 0.250000
vt 0.562500 0.500000
vt 0.562500 0.750000
vt 0.405470 0.250000
vt 0.405470 0.500000
vt 0.405470 0.750000
vt 0.405470 1.000000
vt 0.405470 0.000000
vt 0.468750 0.000000
vt 0.468750 1.000000
vt 0.468750 0.250000
vt 0.468750 0.500000
vt 0.468750 0.750000
vt 0.531250 0.250000
vt 0.531250 0.500000
vt 0.531250 0.750000
vt 0.531250 0.000000
vt 0.531250 1.000000
vt 0.593056 1.000000
vt 0.593056 0.000000
vt 0.593056 0.250000
vt 0.593056 0.500000
vt 0.593056 0.750000
vt 0.484375 0.000000
vt 0.484375 1.000000
vt 0.484375 0.250000
vt 0.484375 0.500000
vt 0.484375 0.750000
vt 0.515625 0.250000
vt 0.515625 0.500000
vt 0.515625 0.750000
vt 0.515625 1.000000
vt 0.515625 0.000000
s 0
f 33/46/1 2/4/1 4/9/1 34/47/1
f 34/47/2 4/9/2 8/14/2 35/48/2
f 35/48/3 8/14/3 6/12/3 36/49/3
f 36/49/4 6/12/4 2/5/4 33/45/4
f 3/7/5 7/13/5 5/11/5 1/1/5
f 8/14/6 4/10/6 2/6/6 6/12/6
f 40/54/7 12/19/7 9/15/7 37/51/7
f 39/53/8 11/18/8 12/19/8 40/54/8
f 38/52/9 10/17/9 11/18/9 39/53/9
f 37/50/10 9/16/10 10/17/10 38/52/10
f 24/34/10 16/23/10 13/20/10 21/30/10
f 21/30/9 13/20/9 14/21/9 22/31/9
f 22/31/8 14/21/8 15/22/8 23/32/8
f 23/32/11 15/22/11 16/24/11 24/33/11
f 31/42/7 20/29/7 17/25/7 32/44/7
f 30/41/8 19/28/8 20/29/8 31/42/8
f 29/40/9 18/27/9 19/28/9 30/41/9
f 32/43/10 17/26/10 18/27/10 29/40/10
f 5/11/7 23/32/7 24/33/7 1/2/7
f 7/13/12 22/31/12 23/32/12 5/11/12
f 3/8/13 21/30/13 22/31/13 7/13/13
f 1/3/14 24/34/14 21/30/14 3/8/14
f 16/23/10 25/35/10 26/37/10 13/20/10
f 13/20/9 26/37/9 27/38/9 14/21/9
f 14/21/8 27/38/8 28/39/8 15/22/8
f 15/22/7 28/39/7 25/36/7 16/24/7
f 44/59/15 32/43/15 29/40/15 41/55/15
f 41/55/16 29/40/16 30/41/16 42/56/16
f 42/56/17 30/41/17 31/42/17 43/57/17
f 43/57/18 31/42/18 32/44/18 44/58/18
f 20/29/7 36/49/7 33/45/7 17/25/7
f 19/28/8 35/48/8 36/49/8 20/29/8
f 18/27/9 34/47/9 35/48/9 19/28/9
f 17/26/10 33/46/10 34/47/10 18/27/10
f 25/35/19 37/50/19 38/52/19 26/37/19
f 26/37/20 38/52/20 39/53/20 27/38/20
f 27/38/21 39/53/21 40/54/21 28/39/21
f 28/39/22 40/54/22 37/51/22 25/36/22
f 12/19/7 43/57/7 44/58/7 9/15/7
f 11/18/8 42/56/8 43/57/8 12/19/8
f 10/17/9 41/55/9 42/56/9 11/18/9
f 9/16/10 44/59/10 41/55/10 10/17/10
o basic_horizontal
v -0.312000 0.438000 0.438000
v -0.312000 0.438000 0.500000
v -0.250000 0.438000 0.500000
v -0.250000 0.438000 0.438000
v 0.500000 0.438000 0.313000
v 0.500000 0.438000 0.500000
v -0.500000 0.438000 0.500000
v -0.500000 0.438000 0.313000
v 0.500000 0.500000 0.313000
v 0.500000 0.500000 0.500000
v -0.500000 0.500000 0.500000
v -0.500000 0.500000 0.313000
v 0.313000 0.438000 0.438000
v 0.313000 0.438000 0.500000
v 0.250000 0.438000 0.500000
v 0.250000 0.438000 0.438000
vn 1.0000 -0.0000 -0.0000
vn -0.0000 -0.0000 1.0000
vn -1.0000 -0.0000 -0.0000
vn -0.0000 -0.0000 -1.0000
vn -0.0000 -1.0000 -0.0000
vn -0.0000 1.0000 -0.0000
vt -0.062000 0.938000
vt 0.000000 0.938000
vt 0.000000 0.000000
vt 0.125000 0.938000
vt 0.000000 0.938000
vt 0.000000 0.188000
vt 1.000000 0.938000
vt 0.125000 0.938000
vt 1.000000 0.188000
vt -0.062000 0.938000
vt 1.000000 0.938000
vt 1.000000 0.000000
vt -0.062000 1.000000
vt 0.000000 1.000000
vt 0.000000 0.000000
vt 0.125000 1.000000
vt 0.000000 1.000000
vt 0.000000 0.188000
vt 1.000000 1.000000
vt 0.125000 1.000000
vt 1.000000 0.188000
vt -0.062000 1.000000
vt 1.000000 1.000000
vt 1.000000 0.000000
s 0
f 53/72/23 54/75/23 50/63/23 49/60/23
f 54/76/24 55/78/24 51/66/24 50/64/24
f 55/79/25 56/81/25 52/69/25 51/67/25
f 56/82/26 53/73/26 49/61/26 52/70/26
f 49/62/27 50/65/27 51/68/27 52/71/27
f 56/83/28 55/80/28 54/77/28 53/74/28
l 45 46
l 46 47
l 45 48
l 57 58
l 58 59
l 59 60
l 47 48
l 57 60
